<?xml version="1.0" standalone="no"?>
<!DOCTYPE svg PUBLIC "-//W3C//DTD SVG 1.1//EN" "http://www.w3.org/Graphics/SVG/1.1/DTD/svg11.dtd">
<svg xmlns="http://www.w3.org/2000/svg">
<defs >
<font id="BigShouldersText" horiz-adv-x="801" ><font-face
    font-family="Big Shoulders Text Medium"
    units-per-em="2000"
    panose-1="0 0 0 0 0 0 0 0 0 0"
    ascent="1968"
    descent="-426"
    alphabetic="0" />
<glyph unicode=" " glyph-name="space" horiz-adv-x="418" />
<glyph unicode="!" glyph-name="exclam" horiz-adv-x="477" d="M148 332L124 926V1600H306V926L283 332H148ZM68 0V205H362V0H68Z" />
<glyph unicode="&quot;" glyph-name="quotedbl" horiz-adv-x="652" d="M127 1148L91 1383V1600H253V1383L218 1148H127ZM434 1148L399 1383V1600H561V1383L525 1148H434Z" />
<glyph unicode="#" glyph-name="numbersign" horiz-adv-x="1249" d="M125 0L244 434H60L98 581H279L395 985H211L249 1132H431L562 1600H739L608 1132H825L956 1600H1131L1000 1132H1189L1154 985H964L848 581H1034L996 434H812L693 0H519L638 434H420L301 0H125ZM456
581H672L788 985H571L456 581Z" />
<glyph unicode="$" glyph-name="dollar" horiz-adv-x="829" d="M334 -188V-9Q210 6 153 74T91 278Q89 358 89 428T95 581H263Q259 494 259 414T263 253Q267 189 302 163T416 136Q492 136 525 162T564 253Q569 317 568 392T564 530Q561 606 531 645T436 701L315
730Q187 760 139 836T88 1063Q86 1125 87 1191T89 1325Q93 1460 150 1528T334 1610V1803H493V1610Q615 1596 672 1528T734 1324Q737 1196 732 1040H561Q564 1128 564 1202T562 1348Q560 1412 526 1438T415 1465Q338 1465 304 1439T265 1348Q261 1275 261 1206T265
1063Q268 982 289 943T366 891L478 866Q622 833 679 756T741 530Q745 403 740 278Q734 140 677 72T493 -10V-188H334Z" />
<glyph unicode="%" glyph-name="percent" horiz-adv-x="1138" d="M288 869Q196 869 143 913T85 1046Q83 1125 83 1183T83 1299T85 1432Q88 1518 141 1562T288 1607Q384 1607 436 1561T493 1432Q495 1381 495 1306T496 1159T493 1048Q489 962 436 916T288 869ZM146
0L864 1600H989L271 0H146ZM288 974Q323 974 340 989T359 1029Q363 1075 364 1153T364 1312T359 1449Q356 1503 288 1503Q222 1503 219 1450Q215 1391 214 1310T214 1151T219 1026Q220 1005 238 990T288 974ZM837 -9Q744 -9 691 35T634 168Q632 247 632 305T631
421T634 554Q636 640 689 684T837 729Q933 729 985 683T1042 554Q1044 503 1044 428T1044 281T1042 170Q1037 84 984 38T837 -9ZM837 96Q871 96 888 111T908 151Q911 197 912 275T913 434T908 571Q904 625 837 625Q770 625 767 572Q764 513 763 432T762 273T767
148Q769 127 787 112T837 96Z" />
<glyph unicode="&amp;" glyph-name="ampersand" horiz-adv-x="1056" d="M431 -15Q259 -15 185 56T105 283Q103 355 103 405T106 499T117 593Q125 688 166 750T259 863Q207 979 175 1093T138 1308Q128 1456 198 1536T421 1616Q580 1616 648 1539T706 1316Q700 1188
645 1079T503 877Q484 857 461 831Q499 756 541 681T629 535Q628 600 623 668T608 808L755 809Q762 748 768 665T776 495T776 334Q825 265 871 207T954 105L836 -2Q809 29 781 63T724 134Q691 58 621 22T431 -15ZM389 977Q413 1007 449 1049T515 1156T549 1314Q558
1401 530 1448T421 1495Q354 1495 326 1451T298 1332Q299 1254 323 1163T389 977ZM435 128Q499 128 531 144T577 196T602 292Q533 387 467 490T343 700Q324 677 309 649T289 584Q281 530 277 465T277 279Q280 207 316 168T435 128Z" />
<glyph unicode="&apos;" glyph-name="quotesingle" horiz-adv-x="354" d="M129 1148L91 1383V1600H262V1383L225 1148H129Z" />
<glyph unicode="(" glyph-name="parenleft" horiz-adv-x="536" d="M342 -400Q253 -274 190 -112T94 234T60 606Q60 779 91 958T184 1303T342 1600H476Q361 1371 302 1114T243 600Q243 345 302 83T476 -400H342Z" />
<glyph unicode=")" glyph-name="parenright" horiz-adv-x="519" d="M177 -400Q266 -274 329 -112T425 234T459 606Q459 779 428 958T335 1303T177 1600H43Q158 1371 217 1114T276 600Q276 345 217 83T43 -400H177Z" />
<glyph unicode="*" glyph-name="asterisk" horiz-adv-x="532" d="M48 1320L201 1392L48 1464L89 1536L233 1447L224 1608H309L299 1448L443 1536L485 1464L332 1392L485 1320L443 1248L299 1339L309 1176H224L233 1337L89 1248L48 1320Z" />
<glyph unicode="+" glyph-name="plus" horiz-adv-x="954" d="M405 395V690H111V831H405V1125H550V831H843V690H550V395H405Z" />
<glyph unicode="," glyph-name="comma" horiz-adv-x="441" d="M126 -225L228 0H73V208H368V19L241 -225H126Z" />
<glyph unicode="-" glyph-name="hyphen" horiz-adv-x="742" d="M60 673V831H682V673H60Z" />
<glyph unicode="." glyph-name="period" horiz-adv-x="430" d="M68 0V205H362V0H68Z" />
<glyph unicode="/" glyph-name="slash" horiz-adv-x="736" d="M60 -400L498 1600H676L238 -400H60Z" />
<glyph unicode="0" glyph-name="zero" horiz-adv-x="849" d="M425 -15Q272 -15 188 60T100 281Q95 584 95 834T100 1319Q103 1463 186 1539T425 1616Q577 1616 661 1540T749 1319Q752 1160 753 983T754 627T749 281Q745 135 660 60T425 -15ZM425 132Q565 132 569
250Q577 549 577 822T569 1350Q566 1468 425 1468Q283 1468 280 1350Q276 1179 274 1041T272 779T274 527T280 252Q283 132 425 132Z" />
<glyph unicode="1" glyph-name="one" horiz-adv-x="480" d="M179 0V1423H82L74 1491L212 1600H361V0H179Z" />
<glyph unicode="2" glyph-name="two" horiz-adv-x="825" d="M92 0Q91 47 91 71T90 119T89 184T90 305Q94 499 161 607T342 781L458 849Q531 893 549 950T571 1067Q575 1132 575 1204T572 1345Q565 1468 414 1468Q337 1468 303 1437T267 1350Q264 1278 264 1197T268
1034H91Q88 1123 87 1185T88 1317Q94 1477 171 1546T415 1616Q590 1616 667 1547T751 1316Q752 1284 752 1235T753 1137T751 1062Q744 917 685 832T519 686L395 613Q327 573 300 486T272 305V158H745V0H92Z" />
<glyph unicode="3" glyph-name="three" horiz-adv-x="823" d="M421 -15Q247 -15 164 54T74 285Q72 347 72 406T74 547H254V263Q254 132 415 132Q561 132 564 263Q567 364 567 450T564 622Q561 690 524 728T392 767L245 766L239 915L542 1443H78V1600H748L747 1452L436
923Q593 916 664 847T744 617Q746 560 746 496T747 375T744 285Q735 124 660 55T421 -15Z" />
<glyph unicode="4" glyph-name="four" horiz-adv-x="833" d="M455 0V467H45V612L368 1600H624V624H784V467H624V0H455ZM218 624H455L477 1039L497 1443H451L342 1039L218 624Z" />
<glyph unicode="5" glyph-name="five" horiz-adv-x="839" d="M431 -15Q253 -15 174 55T90 285Q87 364 87 424T90 547H270Q267 509 266 456T265 351T268 267Q272 195 313 164T426 132Q574 132 582 266Q589 380 590 494T585 711Q576 838 442 838Q371 838 327 798T281
712H111V1600H748V1443H289V894H325Q346 933 398 960T516 987Q638 987 697 916T763 718Q768 623 768 506T761 288Q749 126 673 56T431 -15Z" />
<glyph unicode="6" glyph-name="six" horiz-adv-x="847" d="M425 -17Q253 -17 178 53T100 283Q96 575 95 836T100 1316Q105 1470 187 1542T423 1615Q580 1615 663 1541T752 1324Q754 1269 754 1211T752 1090H574Q577 1153 577 1215T574 1346Q569 1468 424 1468Q282
1468 280 1347Q277 1246 275 1129T272 880H312Q337 920 393 946T514 972Q644 972 702 911T763 704Q765 617 766 554T766 429T762 283Q754 123 676 53T425 -17ZM426 131Q501 131 541 160T582 254Q584 344 585 411T587 544T585 699Q583 764 544 793T442 823Q372 823
323 792T272 702Q272 493 278 260Q279 191 318 161T426 131Z" />
<glyph unicode="7" glyph-name="seven" horiz-adv-x="716" d="M109 0L506 1443H21V1600H685V1443L294 0H109Z" />
<glyph unicode="8" glyph-name="eight" horiz-adv-x="833" d="M417 -15Q247 -15 174 56T93 285Q90 342 90 413T94 584Q101 674 135 727T240 810V841Q124 883 105 1018Q98 1110 97 1180T98 1316Q106 1476 178 1546T417 1616Q578 1616 653 1546T736 1315Q739 1255
737 1172T729 1021Q719 949 684 905T593 841V808Q657 781 693 729T738 587Q744 490 744 416T740 285Q732 125 659 55T417 -15ZM417 909Q559 909 561 1045Q562 1118 563 1192T561 1337Q560 1404 526 1436T417 1468Q276 1468 273 1338Q270 1275 270 1231T270 1145T273
1042Q274 971 310 940T417 909ZM417 132Q491 132 525 163T561 263Q563 358 563 433T561 604Q558 740 417 740Q342 740 308 707T273 604Q270 514 270 433T272 265Q273 200 306 166T417 132Z" />
<glyph unicode="9" glyph-name="nine" horiz-adv-x="845" d="M427 -17Q259 -17 181 53T101 283Q101 308 101 349T100 434T102 508H281Q280 448 279 381T280 257Q284 131 426 131Q491 131 527 160T567 255Q570 349 571 465T574 710H540Q517 670 465 644T345 617Q234
617 159 682T82 895Q80 967 80 1048T80 1201T82 1315Q89 1475 169 1545T419 1615Q593 1615 667 1544T745 1315Q749 1119 750 955T750 629T745 283Q742 123 665 53T427 -17ZM408 766Q564 766 573 879Q573 999 571 1119T565 1347Q564 1409 525 1438T418 1468Q264
1468 262 1345Q262 1321 262 1260T260 1124T259 986T260 891Q262 825 302 796T408 766Z" />
<glyph unicode=":" glyph-name="colon" horiz-adv-x="440" d="M68 600V805H362V600H68ZM68 0V205H362V0H68Z" />
<glyph unicode=";" glyph-name="semicolon" horiz-adv-x="441" d="M126 -225L228 0H73V208H368V19L241 -225H126ZM68 604V809H362V604H68Z" />
<glyph unicode="&lt;" glyph-name="less" horiz-adv-x="1027" d="M907 530V675L501 726L256 744V789L501 806L907 859V1006L120 880V650L907 530Z" />
<glyph unicode="=" glyph-name="equal" horiz-adv-x="936" d="M103 829V970H834V829H103ZM103 552V692H834V552H103Z" />
<glyph unicode="&gt;" glyph-name="greater" horiz-adv-x="992" d="M103 530V675L509 726L754 744V789L509 806L103 859V1006L890 880V650L103 530Z" />
<glyph unicode="?" glyph-name="question" horiz-adv-x="784" d="M284 362L280 577Q276 667 300 726T416 832L460 853Q507 876 518 922T529 1048V1339Q529 1397 496 1428T389 1459Q261 1459 253 1338Q249 1272 249 1196T252 1048H64Q61 1137 61 1190T63 1308Q70
1473 144 1545T387 1617Q564 1617 643 1545T722 1308Q722 1230 722 1182T723 1104T723 1046Q721 922 699 858T638 765T548 714L503 694Q459 675 450 642T438 576L430 362H284ZM211 0V205H506V0H211Z" />
<glyph unicode="@" glyph-name="at" horiz-adv-x="1148" d="M575 -259Q335 -259 223 -183T108 72Q104 256 103 415T102 741T108 1111Q111 1293 220 1374T575 1455Q813 1455 925 1375T1042 1111Q1044 950 1044 822T1044 578T1041 345Q1039 266 988 228T842 190Q742
190 701 217T648 281H620Q599 238 571 214T493 189Q425 189 390 232T348 376Q345 438 344 519T344 684T348 834Q354 936 390 979T496 1023Q544 1023 570 1001T619 933H640V1012H782L783 347Q783 285 842 285Q895 285 898 348Q901 504 902 690T900 1118Q896 1231
820 1282T575 1333Q413 1333 334 1285T252 1118Q247 911 246 742T245 411T252 65Q255 -45 332 -91T575 -137Q737 -137 814 -94T893 58Q894 83 894 96T893 132H1034Q1037 106 1035 61Q1031 -115 923 -187T575 -259ZM549 292Q577 292 602 311T640 361V848Q629 882
602 900T549 919Q494 919 492 846Q486 710 485 599T492 368Q494 325 507 309T549 292Z" />
<glyph unicode="A" glyph-name="A" horiz-adv-x="808" d="M51 0L230 1600H580L757 0H577L537 438H272L232 0H51ZM288 596H522L490 936L448 1442H361L319 936L288 596Z" />
<glyph unicode="B" glyph-name="B" horiz-adv-x="847" d="M119 0V1600H432Q599 1600 674 1535T751 1320Q752 1229 752 1163T750 1032Q745 944 712 893T604 822V790Q681 768 716 717T756 576Q759 495 759 429T756 281Q750 131 677 66T437 0H119ZM295 887H446Q515
887 544 921T575 1036Q577 1114 577 1181T575 1327Q574 1389 542 1415T432 1442H295V887ZM295 161H437Q514 161 546 189T579 283Q582 361 582 426T579 570Q578 658 548 692T441 726H295V161Z" />
<glyph unicode="C" glyph-name="C" horiz-adv-x="860" d="M434 -15Q265 -15 187 52T107 276Q104 467 103 633T103 966T107 1323Q109 1476 187 1544T433 1613Q600 1613 678 1544T763 1323Q766 1248 766 1181T762 1038H586Q588 1116 588 1184T587 1330Q584 1405
550 1434T433 1464Q353 1464 319 1435T283 1330Q279 1178 278 1050T276 800T277 550T283 269Q284 193 319 164T434 134Q520 134 556 163T595 269Q598 337 598 404T594 580H770Q773 490 773 418T771 276Q765 119 686 52T434 -15Z" />
<glyph unicode="D" glyph-name="D" horiz-adv-x="861" d="M119 0V1600H436Q604 1600 677 1534T754 1316Q757 1132 758 966T758 635T754 285Q751 133 680 67T446 0H119ZM295 158H446Q517 158 547 184T578 270Q583 467 584 634T585 967T578 1332Q577 1390 545 1416T436
1442H295V158Z" />
<glyph unicode="E" glyph-name="E" horiz-adv-x="731" d="M119 0V1600H675V1442H295V885H655V727H295V158H675V0H119Z" />
<glyph unicode="F" glyph-name="F" horiz-adv-x="723" d="M119 0V1600H686V1442H295V885H666V727H295V0H119Z" />
<glyph unicode="G" glyph-name="G" horiz-adv-x="859" d="M438 -15Q262 -15 187 53T108 278Q97 800 108 1316Q112 1476 187 1545T437 1615Q608 1615 682 1548T764 1324Q770 1182 764 1040H588Q591 1122 591 1190T588 1339Q584 1411 553 1438T437 1465Q350 1465
319 1438T284 1339Q278 1145 276 973T276 629T284 262Q287 190 318 163T438 136Q529 136 562 163T599 262Q602 395 599 529H446V688H771Q774 567 774 468T770 278Q765 121 690 53T438 -15Z" />
<glyph unicode="H" glyph-name="H" horiz-adv-x="880" d="M119 0V1600H295V885H585V1600H761V0H585V727H295V0H119Z" />
<glyph unicode="I" glyph-name="I" horiz-adv-x="414" d="M119 0V1600H295V0H119Z" />
<glyph unicode="J" glyph-name="J" horiz-adv-x="778" d="M359 -15Q201 -15 130 53T55 278Q51 430 55 581H223Q221 503 221 422T223 262Q225 192 254 164T359 136Q440 136 470 164T501 262V1600H678V278Q678 121 604 53T359 -15Z" />
<glyph unicode="K" glyph-name="K" horiz-adv-x="818" d="M119 0V1600H304L302 1223L288 766H340L478 1252L593 1600H784L543 892L807 0H626L429 684L298 360V0H119Z" />
<glyph unicode="L" glyph-name="L" horiz-adv-x="683" d="M119 0V1600H295V158H669V0H119Z" />
<glyph unicode="M" glyph-name="M" horiz-adv-x="1347" d="M119 0V1600H487L586 951L645 164H704L762 951L862 1600H1229V0H1048V499L1073 1442H988L886 461L802 6H542L462 461L361 1442H275L300 499V0H119Z" />
<glyph unicode="N" glyph-name="N" horiz-adv-x="1036" d="M119 0V1600H464L557 1093L688 159H774L750 1019L739 1600H917V0H559L459 568L350 1443H261L283 601L296 0H119Z" />
<glyph unicode="O" glyph-name="O" horiz-adv-x="867" d="M432 -15Q261 -15 185 54T107 285Q104 480 103 642T103 965T107 1315Q109 1475 185 1545T432 1615Q602 1615 677 1545T758 1315Q762 1125 763 965T764 642T758 285Q753 124 678 55T432 -15ZM432 136Q515
136 547 166T581 278Q585 427 587 553T590 799T588 1045T581 1322Q580 1403 548 1434T432 1465Q350 1465 317 1434T283 1322Q279 1175 277 1050T275 806T277 558T283 278Q284 197 317 167T432 136Z" />
<glyph unicode="P" glyph-name="P" horiz-adv-x="806" d="M119 0V1600H432Q591 1600 662 1536T739 1325Q743 1197 743 1096T739 886Q733 739 661 675T430 611H295V0H119ZM295 769H430Q501 769 530 794T562 879Q568 990 568 1095T562 1332Q560 1391 531 1416T432
1442H295V769Z" />
<glyph unicode="Q" glyph-name="Q" horiz-adv-x="867" d="M669 -242Q541 -251 478 -198T405 -15Q248 -9 179 61T107 285Q104 480 103 642T103 965T107 1315Q109 1475 185 1545T432 1615Q602 1615 677 1545T758 1315Q762 1125 763 965T764 642T758 285Q755 164
712 97T575 6Q573 -55 595 -78T669 -96V-242ZM432 136Q515 136 547 166T581 278Q585 427 587 553T590 799T588 1045T581 1322Q580 1403 548 1434T432 1465Q350 1465 317 1434T283 1322Q279 1175 277 1050T275 806T277 558T283 278Q284 197 317 167T432 136Z" />
<glyph unicode="R" glyph-name="R" horiz-adv-x="834" d="M119 0V1600H433Q592 1600 663 1536T740 1325Q745 1190 745 1090T740 878Q733 686 604 632L770 0H584L436 603H295V0H119ZM295 761H432Q502 761 532 786T564 871Q569 999 569 1101T564 1332Q561 1391 532
1416T433 1442H295V761Z" />
<glyph unicode="S" glyph-name="S" horiz-adv-x="829" d="M417 -15Q247 -15 172 53T91 278Q89 358 89 428T95 581H263Q259 494 259 414T263 253Q267 189 302 163T416 136Q492 136 525 162T564 253Q569 317 568 392T564 530Q561 606 531 645T436 701L315 730Q187
760 139 836T88 1063Q86 1125 87 1191T89 1325Q94 1480 169 1547T416 1615Q580 1615 654 1548T734 1324Q737 1196 732 1040H561Q564 1128 564 1202T562 1348Q560 1412 526 1438T415 1465Q338 1465 304 1439T265 1348Q261 1275 261 1206T265 1063Q268 982 289 943T366
891L478 866Q622 833 679 756T741 530Q745 403 740 278Q734 121 659 53T417 -15Z" />
<glyph unicode="T" glyph-name="T" horiz-adv-x="699" d="M262 0V1442H14V1600H685V1442H438V0H262Z" />
<glyph unicode="U" glyph-name="U" horiz-adv-x="856" d="M428 -15Q257 -15 182 52T105 274Q100 608 100 937T105 1600H281Q277 1266 277 929T280 258Q280 193 313 166T428 138Q509 138 542 165T575 258Q576 592 577 929T575 1600H751Q755 1266 755 937T751 274Q749
120 674 53T428 -15Z" />
<glyph unicode="V" glyph-name="V" horiz-adv-x="823" d="M237 0L53 1600H235L334 720L370 159H452L488 720L587 1600H771L585 0H237Z" />
<glyph unicode="W" glyph-name="W" horiz-adv-x="1351" d="M181 0L66 1600H244L281 982L321 159H402L440 982L521 1590H828L910 982L948 159H1028L1070 982L1109 1600H1285L1169 0H819L763 515L715 1437H636L587 515L531 0H181Z" />
<glyph unicode="X" glyph-name="X" horiz-adv-x="768" d="M37 0L233 818L46 1600H218L302 1223L352 891H418L468 1223L550 1600H722L540 813L730 0H558L470 396L418 732H352L300 396L210 0H37Z" />
<glyph unicode="Y" glyph-name="Y" horiz-adv-x="754" d="M288 0V549H239L37 1600H217L296 1157L347 697H407L457 1157L535 1600H717L513 549H465V0H288Z" />
<glyph unicode="Z" glyph-name="Z" horiz-adv-x="670" d="M35 0V147L447 1442H59V1600H634V1449L216 158H599V0H35Z" />
<glyph unicode="[" glyph-name="bracketleft" horiz-adv-x="597" d="M103 -400V1600H537V1507H284V-307H537V-400H103Z" />
<glyph unicode="\" glyph-name="backslash" horiz-adv-x="674" d="M614 -400L176 1600H-2L436 -400H614Z" />
<glyph unicode="]" glyph-name="bracketright" horiz-adv-x="597" d="M494 -400V1600H60V1507H313V-307H60V-400H494Z" />
<glyph unicode="^" glyph-name="asciicircum" horiz-adv-x="802" d="M103 916L333 1380H468L700 916H570L400 1257L233 916H103Z" />
<glyph unicode="_" glyph-name="underscore" horiz-adv-x="1352" d="M60 -120V-80H1292V-120H60Z" />
<glyph unicode="`" glyph-name="grave" horiz-adv-x="515" d="M263 1280L97 1520H234L396 1280H263Z" />
<glyph unicode="a" glyph-name="a" horiz-adv-x="807" d="M320 -13Q205 -13 143 46T72 229Q71 253 70 278T71 327Q78 437 130 511T319 649Q368 671 421 692T530 732V958Q530 1022 502 1051T405 1080Q345 1080 310 1056T272 969Q271 942 271 903T270 829T272 777H99Q98
816 97 860T97 947Q104 1086 173 1151T412 1216Q581 1216 642 1147T704 922L703 0H527V114H502Q474 53 437 20T320 -13ZM373 119Q484 119 527 228L529 590Q489 578 447 560T356 513Q291 477 271 432T248 327Q248 299 248 281T250 241Q254 184 286 152T373 119Z"
/>
<glyph unicode="b" glyph-name="b" horiz-adv-x="848" d="M521 -15Q438 -15 394 17T314 114H289V0H109V1600H289V1087H325Q360 1151 404 1183T532 1216Q641 1216 697 1155T757 952Q760 857 761 731T761 477T757 248Q751 107 692 46T521 -15ZM464 119Q525 119 550
146T577 235Q584 416 584 588T578 964Q576 1025 551 1053T464 1082Q402 1082 356 1054T289 969V232Q311 172 359 146T464 119Z" />
<glyph unicode="c" glyph-name="c" horiz-adv-x="795" d="M537 778Q539 823 539 874T538 965Q537 1028 507 1053T405 1079Q332 1079 302 1054T271 964Q265 779 265 604T271 239Q272 173 304 147T407 121Q478 121 507 147T538 240Q539 280 539 323T537 426H712Q715
393 715 343T714 257Q708 112 637 49T407 -15Q241 -15 170 49T92 257Q88 349 87 472T87 720T92 940Q99 1088 172 1152T405 1216Q566 1216 638 1153T714 946Q715 907 715 860T712 778H537Z" />
<glyph unicode="d" glyph-name="d" horiz-adv-x="849" d="M319 -15Q207 -15 152 46T92 248Q88 352 87 479T87 730T92 952Q96 1096 155 1156T323 1216Q404 1216 449 1184T530 1087H560V1600H740V0H560V114H528Q492 50 446 18T319 -15ZM385 119Q443 119 490 146T560
232V969Q537 1027 490 1054T385 1082Q326 1082 300 1055T272 969Q267 848 266 718T265 464T270 240Q272 172 299 146T385 119Z" />
<glyph unicode="e" glyph-name="e" horiz-adv-x="794" d="M409 -15Q242 -15 171 49T92 258Q88 349 87 472T87 719T92 940Q99 1088 173 1152T407 1216Q567 1216 637 1152T715 947Q716 924 716 861T717 718T713 567H266Q266 487 267 406T270 239Q272 173 304 148T406
122Q476 122 505 147T538 240Q540 270 540 319T537 426H713Q715 394 716 342T715 258Q707 111 638 48T409 -15ZM266 699H540Q541 779 541 858T538 963Q534 1028 503 1054T407 1080Q332 1080 302 1051T270 963Q269 898 268 832T266 699Z" />
<glyph unicode="f" glyph-name="f" horiz-adv-x="570" d="M144 0V1063H33V1200H144V1345Q143 1491 216 1554T452 1618Q482 1618 521 1614T593 1605V1473Q563 1474 528 1475T454 1477Q387 1477 354 1452T323 1358V1200H555V1063H323V0H144Z" />
<glyph unicode="g" glyph-name="g" horiz-adv-x="845" d="M400 -345Q259 -345 173 -303T76 -173Q74 -168 74 -151T74 -120Q78 -65 117 -33T208 8V36Q105 62 99 143Q96 163 99 185Q101 225 133 254T214 290V320Q150 348 120 408T83 563Q81 639 80 694T80 806T83
940Q92 1088 164 1152T397 1216Q508 1216 575 1187T674 1094H702Q714 1200 842 1200V1063H819Q769 1063 740 1030T711 927V877Q712 815 712 767T713 672T709 563Q701 416 630 352T397 288Q237 290 237 216V206Q237 169 276 154T408 137Q573 131 658 85T755 -72Q757
-91 757 -99T755 -135Q744 -255 650 -300T400 -345ZM397 424Q462 424 497 450T536 545Q541 635 541 748T536 962Q533 1025 501 1052T397 1080Q325 1080 292 1051T256 956Q254 896 253 823T252 677T256 547Q259 478 294 451T397 424ZM408 -219Q493 -219 546 -200T608
-125Q613 -102 608 -76Q600 -19 544 -7T407 8Q328 10 278 -6T221 -79Q219 -100 219 -103T221 -126Q229 -183 278 -201T408 -219Z" />
<glyph unicode="h" glyph-name="h" horiz-adv-x="862" d="M109 0V1600H289V1087H325Q360 1151 404 1183T532 1216Q646 1216 701 1154T757 952L759 0H580L579 966Q579 1027 552 1054T465 1082Q402 1082 356 1054T289 969V0H109Z" />
<glyph unicode="i" glyph-name="i" horiz-adv-x="394" d="M87 1432V1600H308V1432H87ZM109 0V1200H285V0H109Z" />
<glyph unicode="j" glyph-name="j" horiz-adv-x="391" d="M95 1432V1600H316V1432H95ZM-24 -414Q-55 -414 -96 -411T-168 -402V-268Q-107 -273 -27 -273Q47 -273 78 -247T110 -158V1200H290V-141Q289 -287 215 -350T-24 -414Z" />
<glyph unicode="k" glyph-name="k" horiz-adv-x="757" d="M109 0V1600H278V1291L260 681H296L411 975L518 1200H703L466 715L755 0H569L357 532L282 400V0H109Z" />
<glyph unicode="l" glyph-name="l" horiz-adv-x="394" d="M109 0V1600H285V0H109Z" />
<glyph unicode="m" glyph-name="m" horiz-adv-x="1290" d="M109 0V1200H287V1087H321Q354 1150 396 1183T520 1216Q600 1216 651 1183T724 1077H755Q789 1140 837 1178T969 1216Q1076 1216 1130 1155T1186 952V0H1009V966Q1009 1028 981 1055T900 1082Q841 1082
802 1051T740 967V0H562V966Q562 1082 453 1082Q328 1082 287 969V0H109Z" />
<glyph unicode="n" glyph-name="n" horiz-adv-x="862" d="M109 0V1200H287V1087H325Q359 1151 407 1183T532 1216Q646 1216 702 1154T759 952V0H583L582 966Q581 1027 553 1054T465 1082Q409 1082 358 1052T287 969V0H109Z" />
<glyph unicode="o" glyph-name="o" horiz-adv-x="822" d="M412 -15Q241 -15 171 53T92 281Q88 359 87 473T86 706T92 919Q100 1080 170 1148T412 1216Q585 1216 653 1147T730 919Q734 833 735 720T735 492T730 281Q721 122 652 54T412 -15ZM412 121Q490 121 520
150T553 242Q560 423 560 598T553 959Q550 1023 519 1051T412 1079Q336 1079 303 1050T268 956Q262 801 262 614T269 245Q271 179 303 150T412 121Z" />
<glyph unicode="p" glyph-name="p" horiz-adv-x="848" d="M109 -400V1200H289V1087H319Q354 1151 398 1183T527 1216Q637 1216 694 1155T757 952Q759 892 760 799T761 601T760 403T757 248Q751 107 690 46T518 -15Q449 -15 403 14T319 114H289V-400H109ZM455 119Q573
119 577 235Q583 391 584 510T584 738T577 969Q575 1028 549 1055T464 1082Q402 1082 356 1054T289 969V232Q313 169 352 144T455 119Z" />
<glyph unicode="q" glyph-name="q" horiz-adv-x="848" d="M559 -400V114H531Q492 43 446 14T331 -15Q219 -15 158 46T91 248Q88 317 87 410T86 603T87 794T91 952Q96 1093 152 1154T322 1216Q404 1216 448 1184T528 1087H559V1200H739V-400H559ZM393 119Q456 119
496 144T559 232V969Q537 1027 490 1054T384 1082Q327 1082 299 1055T269 964Q264 795 264 600T270 235Q272 174 303 147T393 119Z" />
<glyph unicode="r" glyph-name="r" horiz-adv-x="592" d="M109 0V1200H290V1077H326Q344 1148 388 1176T506 1205Q525 1205 544 1204T583 1201V1063H508Q414 1063 362 1034T290 932V0H109Z" />
<glyph unicode="s" glyph-name="s" horiz-adv-x="750" d="M369 -15Q211 -15 147 48T77 257Q74 345 79 421H239Q236 360 236 316T238 239Q239 173 269 147T369 121Q444 121 477 147T511 240Q512 283 512 305T511 366Q510 431 492 463T419 512L304 544Q182 579 130
642T74 838Q73 896 74 941Q77 1087 144 1151T378 1216Q534 1216 600 1154T671 944Q671 922 671 869T668 783H504Q506 828 506 880T504 965Q503 1029 476 1054T378 1079Q308 1079 280 1054T250 964Q249 947 248 920T248 855Q250 788 266 747T343 690L451 662Q567
632 623 567T679 372Q679 338 679 313T677 253Q674 110 606 48T369 -15Z" />
<glyph unicode="t" glyph-name="t" horiz-adv-x="565" d="M442 -15Q270 -15 200 47T130 261L129 1063H32V1200H134V1540H313V1200H523V1063H307L309 240Q309 169 336 145T444 120Q474 120 495 121T547 125V-5Q523 -10 497 -12T442 -15Z" />
<glyph unicode="u" glyph-name="u" horiz-adv-x="858" d="M333 -15Q220 -15 161 47T101 250V1200H279L281 235Q281 174 307 147T393 119Q450 119 499 148T570 232V1200H749V0H570V114H540Q503 46 452 16T333 -15Z" />
<glyph unicode="v" glyph-name="v" horiz-adv-x="732" d="M215 0L34 1200H218L299 595L342 135H387L433 595L514 1200H698L515 0H215Z" />
<glyph unicode="w" glyph-name="w" horiz-adv-x="1192" d="M185 0L38 1200H218L279 595L313 135H354L389 595L451 1196H743L803 595L836 135H878L914 595L976 1200H1154L1005 0H706L660 463L617 1061H575L532 463L486 0H185Z" />
<glyph unicode="x" glyph-name="x" horiz-adv-x="691" d="M26 0L218 621L30 1200H205L274 943L325 693H364L417 943L486 1200H660L473 618L664 0H490L411 313L362 561H327L280 313L201 0H26Z" />
<glyph unicode="y" glyph-name="y" horiz-adv-x="752" d="M192 -411Q162 -411 122 -408T49 -399V-264Q75 -267 115 -269T189 -271Q271 -271 301 -245T342 -151L368 0H245L51 1200H235L312 627L365 135H413L468 627L534 1200H718L521 -139Q507 -230 474 -290T375
-381T192 -411Z" />
<glyph unicode="z" glyph-name="z" horiz-adv-x="667" d="M44 0V114L440 1066L53 1063V1198L634 1200V1083L231 135H621V0H44Z" />
<glyph unicode="{" glyph-name="braceleft" horiz-adv-x="667" d="M607 -402Q493 -402 403 -368T261 -261T209 -72Q209 -42 211 23T217 162T224 295T227 375Q227 456 196 482T111 508H60V689H111Q164 689 195 714T227 822Q227 841 224 900T218 1034T213 1174T210
1271Q210 1386 261 1458T403 1565T607 1600V1506Q512 1506 449 1439T386 1271Q386 1244 388 1189T393 1070T398 952T401 871Q401 769 360 700T239 616V583Q319 568 360 499T401 328Q401 302 399 248T393 129T388 10T386 -72Q386 -174 449 -240T607 -307V-402Z"
/>
<glyph unicode="|" glyph-name="bar" horiz-adv-x="384" d="M103 1829H281V-240H103V1829Z" />
<glyph unicode="}" glyph-name="braceright" horiz-adv-x="667" d="M60 -402Q174 -402 264 -368T406 -261T458 -72Q458 -42 456 23T450 162T443 295T440 375Q440 456 471 482T556 508H607V689H556Q503 689 472 714T440 822Q440 841 443 900T449 1034T454 1174T457
1271Q457 1386 406 1458T264 1565T60 1600V1506Q155 1506 218 1439T281 1271Q281 1244 279 1189T274 1070T269 952T266 871Q266 769 307 700T428 616V583Q348 568 307 499T266 328Q266 302 268 248T274 129T279 10T281 -72Q281 -174 218 -240T60 -307V-402Z" />
<glyph unicode="~" glyph-name="asciitilde" horiz-adv-x="975" d="M632 641Q562 646 518 675T436 735T348 773Q293 780 258 748T219 655H103Q111 791 182 855T360 910Q417 905 454 886T520 844T576 802T639 781Q692 776 725 806T758 892H873Q870 762 803 699T632 641Z" />
<glyph unicode="&#xa0;" glyph-name="uni00A0" horiz-adv-x="418" />
<glyph unicode="&#xa1;" glyph-name="exclamdown" horiz-adv-x="477" d="M148 868L124 274V-400H306V274L283 868H148ZM68 1200V995H362V1200H68Z" />
<glyph unicode="&#xa2;" glyph-name="cent" horiz-adv-x="795" d="M323 0V190Q205 204 152 268T92 457Q89 526 88 622T87 821T88 1008T92 1140Q98 1268 152 1332T323 1410V1600H481V1411Q601 1399 656 1336T714 1146Q715 1112 715 1062T712 978H537Q539 1023 539
1077T538 1165Q537 1228 507 1253T404 1279Q332 1279 302 1254T270 1164Q265 979 265 804T270 439Q272 373 304 347T406 321Q477 321 507 347T538 440Q538 475 538 520T537 626H712Q714 593 715 543T714 457Q708 330 655 266T481 190V0H323Z" />
<glyph unicode="&#xa3;" glyph-name="sterling" horiz-adv-x="887" d="M128 0V152Q191 195 217 305T243 567Q243 622 239 669T226 758H103V861H202Q177 959 153 1061T129 1318Q130 1461 205 1538T447 1615Q614 1615 688 1546T767 1317Q769 1247 769 1186T766 1033H588Q589
1076 589 1134T590 1250T589 1346Q587 1410 553 1439T447 1468Q375 1468 341 1439T307 1346Q307 1206 336 1095T391 861H588V758H406Q411 720 414 680T418 595Q418 442 386 343T303 189V158H785V0H128Z" />
<glyph unicode="&#xa4;" glyph-name="currency" horiz-adv-x="1020" d="M192 51L106 118L234 287Q195 351 189 472Q185 550 184 664T184 897T189 1110Q194 1229 236 1297L103 1467L185 1533L312 1370Q382 1407 508 1407Q633 1407 702 1372L830 1532L913 1463L781
1298Q821 1233 827 1110Q831 1024 832 911T833 683T827 472Q822 350 780 282L904 120L819 52L699 210Q630 176 508 176Q384 176 313 212L192 51ZM508 312Q587 312 617 341T650 434Q657 614 657 789T650 1150Q648 1215 616 1243T508 1271Q432 1271 400 1242T365
1147Q359 992 359 805T366 436Q368 370 400 341T508 312Z" />
<glyph unicode="&#xa5;" glyph-name="yen" horiz-adv-x="754" d="M289 0V204H139V306H289V383H139V486H289V549H241L37 1600H219L297 1157L347 697H407L458 1157L535 1600H717L513 549H465V486H617V383H465V306H617V204H465V0H289Z" />
<glyph unicode="&#xa6;" glyph-name="brokenbar" horiz-adv-x="384" d="M103 1829H281V1016H103V1829ZM103 536H281V-240H103V536Z" />
<glyph unicode="&#xa7;" glyph-name="section" horiz-adv-x="818" d="M401 -415Q243 -415 180 -361T110 -160Q108 -119 108 -67T112 26H272Q270 -16 269 -44T268 -99T270 -167Q273 -230 303 -254T401 -279Q477 -279 509 -254T542 -160Q543 -116 543 -77T544 5Q542
70 526 105T452 152L356 176Q250 200 180 253T106 423Q101 569 106 732Q108 812 142 861T228 935V972Q170 994 140 1036T105 1172Q101 1259 107 1353Q115 1452 143 1506T234 1583T411 1605Q569 1605 633 1542T702 1335Q703 1300 703 1253T700 1157H535Q539 1203
539 1263T537 1351Q534 1420 506 1439T411 1459Q337 1459 312 1439T283 1355Q280 1316 279 1262T279 1170Q282 1104 296 1069T374 1020L482 997Q586 974 645 907T711 728Q716 640 715 575T710 425Q701 285 588 240V211Q710 163 713 -1Q713 -36 713 -81T710 -159Q703
-255 673 -311T578 -391T401 -415ZM415 309Q489 309 516 344T547 427Q551 469 552 525T553 637T548 733Q544 779 518 814T415 850Q342 850 311 816T276 734Q271 660 272 579T277 427Q282 376 312 343T415 309Z" />
<glyph unicode="&#xa8;" glyph-name="dieresis" horiz-adv-x="641" d="M373 1310V1452H514V1310H373ZM130 1310V1452H271V1310H130Z" />
<glyph unicode="&#xa9;" glyph-name="copyright" horiz-adv-x="1293" d="M647 -10Q372 -10 238 140T103 600Q103 909 237 1059T647 1210Q921 1210 1055 1060T1190 600Q1190 291 1056 141T647 -10ZM647 83Q869 83 977 209T1085 600Q1085 863 977 990T647 1117Q423
1117 316 991T208 600Q208 336 315 210T647 83ZM651 191Q541 191 489 236T431 392Q428 447 428 520T428 667T431 799Q435 909 486 956T650 1003Q764 1003 813 957T867 804Q867 784 867 766T865 731H751Q753 752 753 774T752 815Q752 870 728 891T650 912Q596 912
573 891T547 814Q545 747 545 668T545 513T547 380Q549 323 573 303T651 282Q705 282 728 303T752 380Q753 401 753 419T751 471H865Q869 426 867 391Q861 284 813 238T651 191Z" />
<glyph unicode="&#xaa;" glyph-name="ordfeminine" horiz-adv-x="722" d="M296 754Q201 754 158 796T105 931Q103 945 103 962T103 997Q108 1076 152 1128T307 1223Q341 1235 385 1250T478 1279Q478 1315 477 1352T474 1429Q472 1467 453 1487T370 1508Q320 1508
295 1491T265 1432Q264 1421 264 1395T265 1342T267 1303H127Q125 1319 124 1361T125 1423Q128 1519 184 1567T376 1616Q514 1616 564 1565T617 1397Q619 1347 619 1264T619 1087T619 906T617 765H473Q473 786 473 806T475 845H450Q428 802 394 778T296 754ZM348
859Q387 859 422 876T477 932Q478 997 479 1056T480 1173Q442 1163 407 1152T336 1123Q282 1099 265 1068T246 998Q246 990 246 971T248 941Q250 899 278 879T348 859Z" />
<glyph unicode="&#xab;" glyph-name="guillemotleft" horiz-adv-x="746" d="M610 228L299 536V711L610 1020V845L387 624L610 402V228ZM644 228L333 536V711L644 1020V845L421 624L644 402V228Z" />
<glyph unicode="&#xac;" glyph-name="logicalnot" horiz-adv-x="936" d="M691 509V827H103V968H834V509H691Z" />
<glyph unicode="&#xad;" glyph-name="uni00AD" horiz-adv-x="742" d="M60 673V831H682V673H60Z" />
<glyph unicode="&#xae;" glyph-name="registered" horiz-adv-x="871" d="M438 1020Q103 1020 103 1376Q103 1736 438 1736Q769 1736 769 1376Q769 1020 438 1020ZM438 1078Q578 1078 643 1149T708 1376Q708 1533 643 1604T438 1676Q295 1676 229 1605T163 1376Q163
1221 229 1150T438 1078ZM340 1176V1600H441Q493 1600 521 1580T552 1506Q555 1481 552 1449Q551 1391 496 1380V1368Q548 1355 551 1298Q553 1278 553 1236T552 1176H484Q485 1208 484 1245T482 1307Q481 1347 441 1347H408V1176H340ZM408 1406H443Q481 1406 483
1441Q484 1473 483 1512Q481 1541 441 1541H408V1406Z" />
<glyph unicode="&#xaf;" glyph-name="overscore" horiz-adv-x="827" d="M63 1383H585V1283H63V1383Z" />
<glyph unicode="&#xb0;" glyph-name="degree" horiz-adv-x="683" d="M343 1182Q278 1182 223 1212T136 1291T103 1400Q103 1460 135 1510T223 1590T343 1620Q407 1620 461 1590T548 1510T581 1400Q581 1341 548 1292T461 1212T343 1182ZM343 1263Q405 1263 451
1303T497 1400Q497 1458 451 1499T343 1540Q279 1540 233 1499T186 1400Q186 1344 232 1304T343 1263Z" />
<glyph unicode="&#xb1;" glyph-name="plusminus" horiz-adv-x="976" d="M419 546V692H103V828H419V1005H558V828H874V692H558V546H419ZM103 338V452H874V338H103Z" />
<glyph unicode="&#xb2;" glyph-name="uni00B2" horiz-adv-x="541" d="M78 880Q78 935 78 967T78 1028Q80 1108 122 1157T228 1238L294 1272Q323 1288 335 1307T349 1356Q351 1381 350 1405T349 1457Q348 1476 333 1490T279 1505Q212 1505 210 1457Q209 1425 210
1390T212 1331H80Q79 1364 78 1384T78 1440Q87 1609 279 1609Q479 1609 483 1440Q484 1416 484 1404T484 1357Q483 1285 446 1244T343 1172L269 1138Q218 1110 218 1041V994H474V880H78Z" />
<glyph unicode="&#xb3;" glyph-name="uni00B3" horiz-adv-x="546" d="M274 871Q64 871 63 1032Q62 1058 62 1071T64 1119H197Q195 1097 195 1073T196 1032Q199 976 270 976Q340 976 342 1028Q344 1065 344 1090T342 1147Q339 1205 263 1205H172L167 1302L311 1486H72V1600H474L473
1490L318 1306Q390 1300 433 1263T478 1149Q479 1125 479 1087T478 1032Q477 955 427 913T274 871Z" />
<glyph unicode="&#xb4;" glyph-name="acute" horiz-adv-x="516" d="M108 1280L278 1520H414L239 1280H108Z" />
<glyph unicode="&#xb5;" glyph-name="uni00B5" horiz-adv-x="880" d="M104 -400L103 1200H281L283 235Q284 174 311 147T397 119Q452 119 499 148T566 232V1200H746V208Q746 62 778 0H599Q578 40 571 114H537Q507 60 469 29T377 -10Q324 -15 284 -3V-400H104Z" />
<glyph unicode="&#xb6;" glyph-name="paragraph" horiz-adv-x="1018" d="M494 -200V796H418Q264 796 189 857T105 1092Q102 1147 102 1212T105 1305Q113 1472 186 1536T418 1600H915V1498H817V-200H692V1498H620V-200H494Z" />
<glyph unicode="&#xb7;" glyph-name="middot" horiz-adv-x="333" d="M91 755V906H242V755H91Z" />
<glyph unicode="&#xb8;" glyph-name="cedilla" horiz-adv-x="482" d="M83 -311V-210H133Q183 -210 201 -188T208 -112L183 0H294L319 -112Q355 -311 134 -311H83Z" />
<glyph unicode="&#xb9;" glyph-name="uni00B9" horiz-adv-x="358" d="M129 882V1488H33L29 1534L158 1602H270V882H129Z" />
<glyph unicode="&#xba;" glyph-name="ordmasculine" horiz-adv-x="732" d="M365 754Q229 754 172 802T108 975Q106 1004 105 1060T103 1182T104 1306T108 1396Q119 1513 171 1564T363 1616Q508 1616 564 1563T626 1396Q628 1362 629 1303T630 1177T629 1056T626
975Q619 899 596 850T518 778T365 754ZM367 860Q429 860 454 879T481 943Q485 1047 486 1121T487 1265T481 1428Q479 1471 453 1489T367 1508Q310 1508 282 1490T252 1427Q248 1334 247 1261T247 1113T252 942Q254 897 282 879T367 860Z" />
<glyph unicode="&#xbb;" glyph-name="guillemotright" horiz-adv-x="720" d="M110 228L421 536V711L110 1020V845L333 624L110 402V228ZM76 228L387 536V711L76 1020V845L299 624L76 402V228Z" />
<glyph unicode="&#xbc;" glyph-name="onequarter" horiz-adv-x="1015" d="M129 881V1487H33L29 1533L158 1601H270V881H129ZM-62 0L777 1600H911L71 0H-62ZM893 720V298H979V185H893V0H766V185H526V292L714 720H893ZM766 298L783 465L798 606H771L720 465L659 298H766Z" />
<glyph unicode="&#xbd;" glyph-name="onehalf" horiz-adv-x="1043" d="M129 881V1487H33L29 1533L158 1601H270V881H129ZM-62 0L777 1600H911L71 0H-62ZM580 0Q580 55 580 87T580 148Q582 228 624 277T730 358L796 392Q825 408 837 427T851 476Q853 501 852 525T851
577Q850 596 835 610T781 625Q714 625 712 577Q711 545 712 510T714 451H582Q581 484 580 504T580 560Q589 729 781 729Q981 729 985 560Q986 536 986 524T986 477Q985 405 948 364T845 292L771 258Q720 230 720 161V114H976V0H580Z" />
<glyph unicode="&#xbe;" glyph-name="threequarters" horiz-adv-x="1238" d="M274 871Q64 871 63 1032Q62 1058 62 1071T64 1119H197Q195 1097 195 1073T196 1032Q199 976 270 976Q340 976 342 1028Q344 1065 344 1090T342 1147Q339 1205 263 1205H172L167 1302L311
1486H72V1600H474L473 1490L318 1306Q390 1300 433 1263T478 1149Q479 1125 479 1087T478 1032Q477 955 427 913T274 871ZM161 0L1000 1600H1134L294 0H161ZM1116 720V298H1202V185H1116V0H989V185H749V292L937 720H1116ZM989 298L1006 465L1021 606H994L943 465L882
298H989Z" />
<glyph unicode="&#xbf;" glyph-name="questiondown" horiz-adv-x="784" d="M500 838L504 623Q508 533 484 474T368 368L324 347Q277 324 266 278T255 152V-139Q255 -197 288 -228T395 -259Q523 -259 531 -138Q535 -72 535 4T532 152H720Q723 63 723 10T721 -108Q714
-273 640 -345T397 -417Q220 -417 141 -345T62 -108Q62 -30 62 18T61 96T61 154Q63 278 85 342T146 435T236 486L281 506Q325 525 334 558T346 624L354 838H500ZM573 1200V995H278V1200H573Z" />
<glyph unicode="&#xc0;" glyph-name="Agrave" horiz-adv-x="808" d="M51 0L230 1600H580L757 0H577L537 438H272L232 0H51ZM288 596H522L490 936L448 1442H361L319 936L288 596ZM323 1680L157 1920H294L456 1680H323Z" />
<glyph unicode="&#xc1;" glyph-name="Aacute" horiz-adv-x="808" d="M51 0L230 1600H580L757 0H577L537 438H272L232 0H51ZM288 596H522L490 936L448 1442H361L319 936L288 596ZM349 1680L519 1920H655L480 1680H349Z" />
<glyph unicode="&#xc2;" glyph-name="Acircumflex" horiz-adv-x="808" d="M51 0L230 1600H580L757 0H577L537 438H272L232 0H51ZM288 596H522L490 936L448 1442H361L319 936L288 596ZM190 1681L345 1921H461L616 1681H489L403 1822L318 1681H190Z" />
<glyph unicode="&#xc3;" glyph-name="Atilde" horiz-adv-x="808" d="M51 0L230 1600H580L757 0H577L537 438H272L232 0H51ZM288 596H522L490 936L448 1442H361L319 936L288 596ZM599 1859H681Q678 1771 630 1729T509 1689Q460 1691 428 1710T367 1750T304 1774Q270
1777 244 1760T212 1700H130Q137 1795 186 1837T313 1874Q360 1871 392 1851T451 1811T514 1789Q551 1788 574 1807T599 1859Z" />
<glyph unicode="&#xc4;" glyph-name="Adieresis" horiz-adv-x="808" d="M51 0L230 1600H580L757 0H577L537 438H272L232 0H51ZM288 596H522L490 936L448 1442H361L319 936L288 596ZM455 1710V1852H596V1710H455ZM212 1710V1852H353V1710H212Z" />
<glyph unicode="&#xc5;" glyph-name="Aring" horiz-adv-x="808" d="M51 0L230 1600H580L757 0H577L537 438H272L232 0H51ZM288 596H522L490 936L448 1442H361L319 936L288 596ZM404 1670Q334 1670 283 1720T232 1843Q232 1913 283 1964T404 2015Q475 2015 526
1964T577 1843Q577 1771 526 1721T404 1670ZM404 1774Q433 1774 454 1794T475 1843Q475 1872 454 1892T404 1913Q377 1913 356 1893T335 1843Q335 1814 355 1794T404 1774Z" />
<glyph unicode="&#xc6;" glyph-name="AE" horiz-adv-x="1178" d="M51 0L347 1600H1122V1442H744V885H1102V727H744V158H1122V0H567V430H321L242 0H51ZM353 588H567V1443H484L411 896L353 588Z" />
<glyph unicode="&#xc7;" glyph-name="Ccedilla" horiz-adv-x="860" d="M434 -15Q265 -15 187 52T107 276Q104 467 103 633T103 966T107 1323Q109 1476 187 1544T433 1613Q600 1613 678 1544T763 1323Q766 1248 766 1181T762 1038H586Q588 1116 588 1184T587 1330Q584
1405 550 1434T433 1464Q353 1464 319 1435T283 1330Q279 1178 278 1050T276 800T277 550T283 269Q284 193 319 164T434 134Q520 134 556 163T595 269Q598 337 598 404T594 580H770Q773 490 773 418T771 276Q765 119 686 52T434 -15ZM275 -302V-201H325Q375 -201
393 -179T400 -103L375 9H486L511 -103Q547 -302 326 -302H275Z" />
<glyph unicode="&#xc8;" glyph-name="Egrave" horiz-adv-x="731" d="M119 0V1600H675V1442H295V885H655V727H295V158H675V0H119ZM312 1678L146 1918H283L445 1678H312Z" />
<glyph unicode="&#xc9;" glyph-name="Eacute" horiz-adv-x="731" d="M119 0V1600H675V1442H295V885H655V727H295V158H675V0H119ZM338 1678L508 1918H644L469 1678H338Z" />
<glyph unicode="&#xca;" glyph-name="Ecircumflex" horiz-adv-x="731" d="M119 0V1600H675V1442H295V885H655V727H295V158H675V0H119ZM179 1679L334 1919H450L605 1679H478L392 1820L307 1679H179Z" />
<glyph unicode="&#xcb;" glyph-name="Edieresis" horiz-adv-x="731" d="M119 0V1600H675V1442H295V885H655V727H295V158H675V0H119ZM445 1708V1850H586V1708H445ZM202 1708V1850H343V1708H202Z" />
<glyph unicode="&#xcc;" glyph-name="Igrave" horiz-adv-x="414" d="M119 0V1600H295V0H119ZM125 1680L-41 1920H96L258 1680H125Z" />
<glyph unicode="&#xcd;" glyph-name="Iacute" horiz-adv-x="414" d="M119 0V1600H295V0H119ZM152 1680L322 1920H458L283 1680H152Z" />
<glyph unicode="&#xce;" glyph-name="Icircumflex" horiz-adv-x="414" d="M119 0V1600H295V0H119ZM-8 1681L147 1921H263L418 1681H291L205 1822L120 1681H-8Z" />
<glyph unicode="&#xcf;" glyph-name="Idieresis" horiz-adv-x="414" d="M119 0V1600H295V0H119ZM258 1710V1852H399V1710H258ZM15 1710V1852H156V1710H15Z" />
<glyph unicode="&#xd0;" glyph-name="Eth" horiz-adv-x="914" d="M172 0V849H100V946H172V1600H489Q657 1600 730 1534T807 1316Q810 1132 811 966T811 635T807 285Q804 133 733 67T499 0H172ZM348 158H499Q570 158 600 184T631 270Q636 467 637 634T638 967T631
1332Q630 1390 598 1416T489 1442H348V946H461V849H348V158Z" />
<glyph unicode="&#xd1;" glyph-name="Ntilde" horiz-adv-x="1036" d="M119 0V1600H464L557 1093L688 159H774L750 1019L739 1600H917V0H559L459 568L350 1443H261L283 601L296 0H119ZM727 1859H809Q806 1771 758 1729T637 1689Q588 1691 556 1710T495 1750T432
1774Q398 1777 372 1760T340 1700H258Q265 1795 314 1837T441 1874Q488 1871 520 1851T579 1811T642 1789Q679 1788 702 1807T727 1859Z" />
<glyph unicode="&#xd2;" glyph-name="Ograve" horiz-adv-x="867" d="M432 -15Q261 -15 185 54T107 285Q104 480 103 642T103 965T107 1315Q109 1475 185 1545T432 1615Q602 1615 677 1545T758 1315Q762 1125 763 965T764 642T758 285Q753 124 678 55T432 -15ZM432
136Q515 136 547 166T581 278Q585 427 587 553T590 799T588 1045T581 1322Q580 1403 548 1434T432 1465Q350 1465 317 1434T283 1322Q279 1175 277 1050T275 806T277 558T283 278Q284 197 317 167T432 136ZM352 1680L186 1920H323L485 1680H352Z" />
<glyph unicode="&#xd3;" glyph-name="Oacute" horiz-adv-x="867" d="M432 -15Q261 -15 185 54T107 285Q104 480 103 642T103 965T107 1315Q109 1475 185 1545T432 1615Q602 1615 677 1545T758 1315Q762 1125 763 965T764 642T758 285Q753 124 678 55T432 -15ZM432
136Q515 136 547 166T581 278Q585 427 587 553T590 799T588 1045T581 1322Q580 1403 548 1434T432 1465Q350 1465 317 1434T283 1322Q279 1175 277 1050T275 806T277 558T283 278Q284 197 317 167T432 136ZM378 1680L548 1920H684L509 1680H378Z" />
<glyph unicode="&#xd4;" glyph-name="Ocircumflex" horiz-adv-x="867" d="M432 -15Q261 -15 185 54T107 285Q104 480 103 642T103 965T107 1315Q109 1475 185 1545T432 1615Q602 1615 677 1545T758 1315Q762 1125 763 965T764 642T758 285Q753 124 678 55T432
-15ZM432 136Q515 136 547 166T581 278Q585 427 587 553T590 799T588 1045T581 1322Q580 1403 548 1434T432 1465Q350 1465 317 1434T283 1322Q279 1175 277 1050T275 806T277 558T283 278Q284 197 317 167T432 136ZM219 1681L374 1921H490L645 1681H518L432 1822L347
1681H219Z" />
<glyph unicode="&#xd5;" glyph-name="Otilde" horiz-adv-x="867" d="M432 -15Q261 -15 185 54T107 285Q104 480 103 642T103 965T107 1315Q109 1475 185 1545T432 1615Q602 1615 677 1545T758 1315Q762 1125 763 965T764 642T758 285Q753 124 678 55T432 -15ZM432
136Q515 136 547 166T581 278Q585 427 587 553T590 799T588 1045T581 1322Q580 1403 548 1434T432 1465Q350 1465 317 1434T283 1322Q279 1175 277 1050T275 806T277 558T283 278Q284 197 317 167T432 136ZM628 1859H710Q707 1771 659 1729T538 1689Q489 1691 457
1710T396 1750T333 1774Q299 1777 273 1760T241 1700H159Q166 1795 215 1837T342 1874Q389 1871 421 1851T480 1811T543 1789Q580 1788 603 1807T628 1859Z" />
<glyph unicode="&#xd6;" glyph-name="Odieresis" horiz-adv-x="867" d="M432 -15Q261 -15 185 54T107 285Q104 480 103 642T103 965T107 1315Q109 1475 185 1545T432 1615Q602 1615 677 1545T758 1315Q762 1125 763 965T764 642T758 285Q753 124 678 55T432 -15ZM432
136Q515 136 547 166T581 278Q585 427 587 553T590 799T588 1045T581 1322Q580 1403 548 1434T432 1465Q350 1465 317 1434T283 1322Q279 1175 277 1050T275 806T277 558T283 278Q284 197 317 167T432 136ZM484 1710V1852H625V1710H484ZM241 1710V1852H382V1710H241Z"
/>
<glyph unicode="&#xd7;" glyph-name="multiply" horiz-adv-x="859" d="M202 453L103 549L329 761L103 971L202 1067L430 854L658 1067L757 971L530 761L757 549L658 453L430 665L202 453Z" />
<glyph unicode="&#xd8;" glyph-name="Oslash" horiz-adv-x="867" d="M432 -15Q261 -15 185 54T107 285Q104 480 103 642T103 965T107 1315Q109 1475 185 1545T432 1615Q602 1615 677 1545T758 1315Q762 1125 763 965T764 642T758 285Q753 124 678 55T432 -15ZM276
635L585 1196Q585 1226 584 1257T581 1322Q580 1403 548 1434T432 1465Q350 1465 317 1434T283 1322Q279 1188 277 1076T275 858T276 635ZM432 136Q515 136 547 166T581 278Q584 412 586 522T588 736T588 953L280 390Q280 363 281 336T283 278Q284 197 317 167T432
136Z" />
<glyph unicode="&#xd9;" glyph-name="Ugrave" horiz-adv-x="856" d="M428 -15Q257 -15 182 52T105 274Q100 608 100 937T105 1600H281Q277 1266 277 929T280 258Q280 193 313 166T428 138Q509 138 542 165T575 258Q576 592 577 929T575 1600H751Q755 1266 755
937T751 274Q749 120 674 53T428 -15ZM346 1680L180 1920H317L479 1680H346Z" />
<glyph unicode="&#xda;" glyph-name="Uacute" horiz-adv-x="856" d="M428 -15Q257 -15 182 52T105 274Q100 608 100 937T105 1600H281Q277 1266 277 929T280 258Q280 193 313 166T428 138Q509 138 542 165T575 258Q576 592 577 929T575 1600H751Q755 1266 755
937T751 274Q749 120 674 53T428 -15ZM373 1680L543 1920H679L504 1680H373Z" />
<glyph unicode="&#xdb;" glyph-name="Ucircumflex" horiz-adv-x="856" d="M428 -15Q257 -15 182 52T105 274Q100 608 100 937T105 1600H281Q277 1266 277 929T280 258Q280 193 313 166T428 138Q509 138 542 165T575 258Q576 592 577 929T575 1600H751Q755 1266
755 937T751 274Q749 120 674 53T428 -15ZM213 1681L368 1921H484L639 1681H512L426 1822L341 1681H213Z" />
<glyph unicode="&#xdc;" glyph-name="Udieresis" horiz-adv-x="856" d="M428 -15Q257 -15 182 52T105 274Q100 608 100 937T105 1600H281Q277 1266 277 929T280 258Q280 193 313 166T428 138Q509 138 542 165T575 258Q576 592 577 929T575 1600H751Q755 1266 755
937T751 274Q749 120 674 53T428 -15ZM479 1710V1852H620V1710H479ZM236 1710V1852H377V1710H236Z" />
<glyph unicode="&#xdd;" glyph-name="Yacute" horiz-adv-x="754" d="M288 0V549H239L37 1600H217L296 1157L347 697H407L457 1157L535 1600H717L513 549H465V0H288ZM321 1680L491 1920H627L452 1680H321Z" />
<glyph unicode="&#xde;" glyph-name="Thorn" horiz-adv-x="768" d="M103 0V1600H279V1315H404Q563 1315 634 1251T711 1040Q715 912 715 811T711 601Q705 454 634 390T403 326H279V0H103ZM279 484H403Q473 484 503 509T535 594Q539 715 540 820T535 1047Q532 1105
503 1131T404 1157H279V484Z" />
<glyph unicode="&#xdf;" glyph-name="germandbls" horiz-adv-x="815" d="M103 0V1304Q103 1396 129 1462T226 1564T425 1600Q593 1600 666 1533T741 1308Q743 1235 743 1175T740 1043Q735 949 699 898T594 825V791Q672 770 710 717T753 566Q755 503 755 435T753
293Q746 126 665 63T426 0H378V158H426Q495 158 532 189T573 295Q580 433 573 560Q570 661 530 695T418 729H384V887H413Q483 887 521 924T562 1045Q564 1104 564 1144T564 1224T561 1326Q560 1395 526 1424T422 1453Q341 1453 313 1420T284 1329V0H103Z" />
<glyph unicode="&#xe0;" glyph-name="agrave" horiz-adv-x="807" d="M320 -13Q205 -13 143 46T72 229Q71 253 70 278T71 327Q78 437 130 511T319 649Q368 671 421 692T530 732V958Q530 1022 502 1051T405 1080Q345 1080 310 1056T272 969Q271 942 271 903T270
829T272 777H99Q98 816 97 860T97 947Q104 1086 173 1151T412 1216Q581 1216 642 1147T704 922L703 0H527V114H502Q474 53 437 20T320 -13ZM373 119Q484 119 527 228L529 590Q489 578 447 560T356 513Q291 477 271 432T248 327Q248 299 248 281T250 241Q254 184
286 152T373 119ZM308 1280L142 1520H279L441 1280H308Z" />
<glyph unicode="&#xe1;" glyph-name="aacute" horiz-adv-x="807" d="M320 -13Q205 -13 143 46T72 229Q71 253 70 278T71 327Q78 437 130 511T319 649Q368 671 421 692T530 732V958Q530 1022 502 1051T405 1080Q345 1080 310 1056T272 969Q271 942 271 903T270
829T272 777H99Q98 816 97 860T97 947Q104 1086 173 1151T412 1216Q581 1216 642 1147T704 922L703 0H527V114H502Q474 53 437 20T320 -13ZM373 119Q484 119 527 228L529 590Q489 578 447 560T356 513Q291 477 271 432T248 327Q248 299 248 281T250 241Q254 184
286 152T373 119ZM334 1280L504 1520H640L465 1280H334Z" />
<glyph unicode="&#xe2;" glyph-name="acircumflex" horiz-adv-x="807" d="M320 -13Q205 -13 143 46T72 229Q71 253 70 278T71 327Q78 437 130 511T319 649Q368 671 421 692T530 732V958Q530 1022 502 1051T405 1080Q345 1080 310 1056T272 969Q271 942 271 903T270
829T272 777H99Q98 816 97 860T97 947Q104 1086 173 1151T412 1216Q581 1216 642 1147T704 922L703 0H527V114H502Q474 53 437 20T320 -13ZM373 119Q484 119 527 228L529 590Q489 578 447 560T356 513Q291 477 271 432T248 327Q248 299 248 281T250 241Q254 184
286 152T373 119ZM175 1281L330 1521H446L601 1281H474L388 1422L303 1281H175Z" />
<glyph unicode="&#xe3;" glyph-name="atilde" horiz-adv-x="807" d="M320 -13Q205 -13 143 46T72 229Q71 253 70 278T71 327Q78 437 130 511T319 649Q368 671 421 692T530 732V958Q530 1022 502 1051T405 1080Q345 1080 310 1056T272 969Q271 942 271 903T270
829T272 777H99Q98 816 97 860T97 947Q104 1086 173 1151T412 1216Q581 1216 642 1147T704 922L703 0H527V114H502Q474 53 437 20T320 -13ZM373 119Q484 119 527 228L529 590Q489 578 447 560T356 513Q291 477 271 432T248 327Q248 299 248 281T250 241Q254 184
286 152T373 119ZM584 1459H666Q663 1371 615 1329T494 1289Q445 1291 413 1310T352 1350T289 1374Q255 1377 229 1360T197 1300H115Q122 1395 171 1437T298 1474Q345 1471 377 1451T436 1411T499 1389Q536 1388 559 1407T584 1459Z" />
<glyph unicode="&#xe4;" glyph-name="adieresis" horiz-adv-x="807" d="M320 -13Q205 -13 143 46T72 229Q71 253 70 278T71 327Q78 437 130 511T319 649Q368 671 421 692T530 732V958Q530 1022 502 1051T405 1080Q345 1080 310 1056T272 969Q271 942 271 903T270
829T272 777H99Q98 816 97 860T97 947Q104 1086 173 1151T412 1216Q581 1216 642 1147T704 922L703 0H527V114H502Q474 53 437 20T320 -13ZM373 119Q484 119 527 228L529 590Q489 578 447 560T356 513Q291 477 271 432T248 327Q248 299 248 281T250 241Q254 184
286 152T373 119ZM441 1310V1452H582V1310H441ZM198 1310V1452H339V1310H198Z" />
<glyph unicode="&#xe5;" glyph-name="aring" horiz-adv-x="807" d="M320 -13Q205 -13 143 46T72 229Q71 253 70 278T71 327Q78 437 130 511T319 649Q368 671 421 692T530 732V958Q530 1022 502 1051T405 1080Q345 1080 310 1056T272 969Q271 942 271 903T270 829T272
777H99Q98 816 97 860T97 947Q104 1086 173 1151T412 1216Q581 1216 642 1147T704 922L703 0H527V114H502Q474 53 437 20T320 -13ZM373 119Q484 119 527 228L529 590Q489 578 447 560T356 513Q291 477 271 432T248 327Q248 299 248 281T250 241Q254 184 286 152T373
119ZM390 1270Q320 1270 269 1320T218 1443Q218 1513 269 1564T390 1615Q461 1615 512 1564T563 1443Q563 1371 512 1321T390 1270ZM390 1374Q419 1374 440 1394T461 1443Q461 1472 440 1492T390 1513Q363 1513 342 1493T321 1443Q321 1414 341 1394T390 1374Z"
/>
<glyph unicode="&#xe6;" glyph-name="ae" horiz-adv-x="1194" d="M301 -13Q200 -13 142 44T72 227Q70 259 70 278T71 327Q78 439 144 506T309 619Q357 642 407 662T508 700V959Q508 983 503 1011T472 1060T388 1080Q326 1080 301 1053T272 965Q271 945 270 910T269
839T272 777H97Q96 810 96 865T97 952Q102 1089 170 1152T391 1216Q467 1216 518 1202T601 1163Q676 1216 814 1216Q965 1216 1037 1154T1115 947Q1115 931 1116 885T1117 779T1117 665T1113 579H686V240Q686 172 718 147T818 122Q886 122 912 149T940 239Q941
274 942 309T939 426H1113Q1116 397 1116 344T1115 258Q1109 111 1041 48T819 -15Q598 -15 538 114H522Q494 50 436 19T301 -13ZM686 711H941Q942 785 942 857T940 965Q938 1025 909 1052T814 1080Q750 1080 718 1053T686 965V711ZM365 119Q399 119 431 134T486
193T510 318Q510 363 509 429T508 570Q472 558 430 539T350 495Q296 461 274 423T247 327Q246 299 246 283T249 240Q256 187 280 153T365 119Z" />
<glyph unicode="&#xe7;" glyph-name="ccedilla" horiz-adv-x="795" d="M537 778Q539 823 539 874T538 965Q537 1028 507 1053T405 1079Q332 1079 302 1054T271 964Q265 779 265 604T271 239Q272 173 304 147T407 121Q478 121 507 147T538 240Q539 280 539 323T537
426H712Q715 393 715 343T714 257Q708 112 637 49T407 -15Q241 -15 170 49T92 257Q88 349 87 472T87 720T92 940Q99 1088 172 1152T405 1216Q566 1216 638 1153T714 946Q715 907 715 860T712 778H537ZM241 -302V-201H291Q341 -201 359 -179T366 -103L341 9H452L477
-103Q513 -302 292 -302H241Z" />
<glyph unicode="&#xe8;" glyph-name="egrave" horiz-adv-x="794" d="M409 -15Q242 -15 171 49T92 258Q88 349 87 472T87 719T92 940Q99 1088 173 1152T407 1216Q567 1216 637 1152T715 947Q716 924 716 861T717 718T713 567H266Q266 487 267 406T270 239Q272 173
304 148T406 122Q476 122 505 147T538 240Q540 270 540 319T537 426H713Q715 394 716 342T715 258Q707 111 638 48T409 -15ZM266 699H540Q541 779 541 858T538 963Q534 1028 503 1054T407 1080Q332 1080 302 1051T270 963Q269 898 268 832T266 699ZM321 1280L155
1520H292L454 1280H321Z" />
<glyph unicode="&#xe9;" glyph-name="eacute" horiz-adv-x="794" d="M409 -15Q242 -15 171 49T92 258Q88 349 87 472T87 719T92 940Q99 1088 173 1152T407 1216Q567 1216 637 1152T715 947Q716 924 716 861T717 718T713 567H266Q266 487 267 406T270 239Q272 173
304 148T406 122Q476 122 505 147T538 240Q540 270 540 319T537 426H713Q715 394 716 342T715 258Q707 111 638 48T409 -15ZM266 699H540Q541 779 541 858T538 963Q534 1028 503 1054T407 1080Q332 1080 302 1051T270 963Q269 898 268 832T266 699ZM347 1280L517
1520H653L478 1280H347Z" />
<glyph unicode="&#xea;" glyph-name="ecircumflex" horiz-adv-x="794" d="M409 -15Q242 -15 171 49T92 258Q88 349 87 472T87 719T92 940Q99 1088 173 1152T407 1216Q567 1216 637 1152T715 947Q716 924 716 861T717 718T713 567H266Q266 487 267 406T270 239Q272
173 304 148T406 122Q476 122 505 147T538 240Q540 270 540 319T537 426H713Q715 394 716 342T715 258Q707 111 638 48T409 -15ZM266 699H540Q541 779 541 858T538 963Q534 1028 503 1054T407 1080Q332 1080 302 1051T270 963Q269 898 268 832T266 699ZM188 1281L343
1521H459L614 1281H487L401 1422L316 1281H188Z" />
<glyph unicode="&#xeb;" glyph-name="edieresis" horiz-adv-x="794" d="M409 -15Q242 -15 171 49T92 258Q88 349 87 472T87 719T92 940Q99 1088 173 1152T407 1216Q567 1216 637 1152T715 947Q716 924 716 861T717 718T713 567H266Q266 487 267 406T270 239Q272
173 304 148T406 122Q476 122 505 147T538 240Q540 270 540 319T537 426H713Q715 394 716 342T715 258Q707 111 638 48T409 -15ZM266 699H540Q541 779 541 858T538 963Q534 1028 503 1054T407 1080Q332 1080 302 1051T270 963Q269 898 268 832T266 699ZM453 1310V1452H594V1310H453ZM210
1310V1452H351V1310H210Z" />
<glyph unicode="&#xec;" glyph-name="igrave" horiz-adv-x="394" d="M109 0V1200H285V0H109ZM116 1280L-50 1520H87L249 1280H116Z" />
<glyph unicode="&#xed;" glyph-name="iacute" horiz-adv-x="394" d="M109 0V1200H285V0H109ZM142 1280L312 1520H448L273 1280H142Z" />
<glyph unicode="&#xee;" glyph-name="icircumflex" horiz-adv-x="394" d="M109 0V1200H285V0H109ZM239 1281L394 1521H510L665 1281H538L452 1422L367 1281H239Z" />
<glyph unicode="&#xef;" glyph-name="idieresis" horiz-adv-x="394" d="M109 0V1200H285V0H109ZM504 1310V1452H645V1310H504ZM261 1310V1452H402V1310H261Z" />
<glyph unicode="&#xf0;" glyph-name="eth" horiz-adv-x="836" d="M424 -17Q255 -17 179 53T95 283Q91 389 91 524T95 821Q97 948 162 1017T336 1086Q402 1086 452 1061T524 997H546Q517 1125 461 1217L317 1152L271 1242L397 1299Q359 1349 312 1389T209 1464L304
1615Q383 1564 447 1509T560 1387L717 1456L763 1366L619 1302Q680 1196 710 1064T745 761Q746 652 746 523T745 282Q741 122 668 53T424 -17ZM424 131Q564 131 567 252Q569 388 569 524T565 833Q564 885 519 913T407 941Q338 941 306 909T273 813Q271 721 271
620T272 424T275 254Q277 187 314 159T424 131Z" />
<glyph unicode="&#xf1;" glyph-name="ntilde" horiz-adv-x="862" d="M109 0V1200H287V1087H325Q359 1151 407 1183T532 1216Q646 1216 702 1154T759 952V0H583L582 966Q581 1027 553 1054T465 1082Q409 1082 358 1052T287 969V0H109ZM631 1459H713Q710 1371 662
1329T541 1289Q492 1291 460 1310T399 1350T336 1374Q302 1377 276 1360T244 1300H162Q169 1395 218 1437T345 1474Q392 1471 424 1451T483 1411T546 1389Q583 1388 606 1407T631 1459Z" />
<glyph unicode="&#xf2;" glyph-name="ograve" horiz-adv-x="822" d="M412 -15Q241 -15 171 53T92 281Q88 359 87 473T86 706T92 919Q100 1080 170 1148T412 1216Q585 1216 653 1147T730 919Q734 833 735 720T735 492T730 281Q721 122 652 54T412 -15ZM412 121Q490
121 520 150T553 242Q560 423 560 598T553 959Q550 1023 519 1051T412 1079Q336 1079 303 1050T268 956Q262 801 262 614T269 245Q271 179 303 150T412 121ZM330 1280L164 1520H301L463 1280H330Z" />
<glyph unicode="&#xf3;" glyph-name="oacute" horiz-adv-x="822" d="M412 -15Q241 -15 171 53T92 281Q88 359 87 473T86 706T92 919Q100 1080 170 1148T412 1216Q585 1216 653 1147T730 919Q734 833 735 720T735 492T730 281Q721 122 652 54T412 -15ZM412 121Q490
121 520 150T553 242Q560 423 560 598T553 959Q550 1023 519 1051T412 1079Q336 1079 303 1050T268 956Q262 801 262 614T269 245Q271 179 303 150T412 121ZM356 1280L526 1520H662L487 1280H356Z" />
<glyph unicode="&#xf4;" glyph-name="ocircumflex" horiz-adv-x="822" d="M412 -15Q241 -15 171 53T92 281Q88 359 87 473T86 706T92 919Q100 1080 170 1148T412 1216Q585 1216 653 1147T730 919Q734 833 735 720T735 492T730 281Q721 122 652 54T412 -15ZM412
121Q490 121 520 150T553 242Q560 423 560 598T553 959Q550 1023 519 1051T412 1079Q336 1079 303 1050T268 956Q262 801 262 614T269 245Q271 179 303 150T412 121ZM197 1281L352 1521H468L623 1281H496L410 1422L325 1281H197Z" />
<glyph unicode="&#xf5;" glyph-name="otilde" horiz-adv-x="822" d="M412 -15Q241 -15 171 53T92 281Q88 359 87 473T86 706T92 919Q100 1080 170 1148T412 1216Q585 1216 653 1147T730 919Q734 833 735 720T735 492T730 281Q721 122 652 54T412 -15ZM412 121Q490
121 520 150T553 242Q560 423 560 598T553 959Q550 1023 519 1051T412 1079Q336 1079 303 1050T268 956Q262 801 262 614T269 245Q271 179 303 150T412 121ZM606 1459H688Q685 1371 637 1329T516 1289Q467 1291 435 1310T374 1350T311 1374Q277 1377 251 1360T219
1300H137Q144 1395 193 1437T320 1474Q367 1471 399 1451T458 1411T521 1389Q558 1388 581 1407T606 1459Z" />
<glyph unicode="&#xf6;" glyph-name="odieresis" horiz-adv-x="822" d="M412 -15Q241 -15 171 53T92 281Q88 359 87 473T86 706T92 919Q100 1080 170 1148T412 1216Q585 1216 653 1147T730 919Q734 833 735 720T735 492T730 281Q721 122 652 54T412 -15ZM412 121Q490
121 520 150T553 242Q560 423 560 598T553 959Q550 1023 519 1051T412 1079Q336 1079 303 1050T268 956Q262 801 262 614T269 245Q271 179 303 150T412 121ZM462 1310V1452H603V1310H462ZM219 1310V1452H360V1310H219Z" />
<glyph unicode="&#xf7;" glyph-name="divide" horiz-adv-x="995" d="M414 939V1100H582V939H414ZM103 690V831H893V690H103ZM414 419V581H582V419H414Z" />
<glyph unicode="&#xf8;" glyph-name="oslash" horiz-adv-x="822" d="M412 -15Q241 -15 171 53T92 281Q88 359 87 473T86 706T92 919Q100 1080 170 1148T412 1216Q585 1216 653 1147T730 919Q734 833 735 720T735 492T730 281Q721 122 652 54T412 -15ZM268 956Q264
845 263 717T263 456L557 839Q555 899 553 959Q550 1023 519 1051T412 1079Q336 1079 303 1050T268 956ZM412 121Q490 121 520 150T553 242Q557 351 559 457T560 670L267 296Q268 270 269 245Q271 179 303 150T412 121Z" />
<glyph unicode="&#xf9;" glyph-name="ugrave" horiz-adv-x="858" d="M333 -15Q220 -15 161 47T101 250V1200H279L281 235Q281 174 307 147T393 119Q450 119 499 148T570 232V1200H749V0H570V114H540Q503 46 452 16T333 -15ZM341 1280L175 1520H312L474 1280H341Z" />
<glyph unicode="&#xfa;" glyph-name="uacute" horiz-adv-x="858" d="M333 -15Q220 -15 161 47T101 250V1200H279L281 235Q281 174 307 147T393 119Q450 119 499 148T570 232V1200H749V0H570V114H540Q503 46 452 16T333 -15ZM367 1280L537 1520H673L498 1280H367Z" />
<glyph unicode="&#xfb;" glyph-name="ucircumflex" horiz-adv-x="858" d="M333 -15Q220 -15 161 47T101 250V1200H279L281 235Q281 174 307 147T393 119Q450 119 499 148T570 232V1200H749V0H570V114H540Q503 46 452 16T333 -15ZM208 1281L363 1521H479L634 1281H507L421
1422L336 1281H208Z" />
<glyph unicode="&#xfc;" glyph-name="udieresis" horiz-adv-x="858" d="M333 -15Q220 -15 161 47T101 250V1200H279L281 235Q281 174 307 147T393 119Q450 119 499 148T570 232V1200H749V0H570V114H540Q503 46 452 16T333 -15ZM474 1310V1452H615V1310H474ZM231
1310V1452H372V1310H231Z" />
<glyph unicode="&#xfd;" glyph-name="yacute" horiz-adv-x="752" d="M192 -411Q162 -411 122 -408T49 -399V-264Q75 -267 115 -269T189 -271Q271 -271 301 -245T342 -151L368 0H245L51 1200H235L312 627L365 135H413L468 627L534 1200H718L521 -139Q507 -230 474
-290T375 -381T192 -411ZM326 1280L496 1520H632L457 1280H326Z" />
<glyph unicode="&#xfe;" glyph-name="thorn" horiz-adv-x="856" d="M103 -400V1600H283V1087H313Q348 1151 392 1183T520 1216Q631 1216 688 1155T751 952Q752 892 753 799T754 601T753 403T751 248Q745 107 684 46T512 -15Q443 -15 397 14T313 114H283V-400H103ZM449
119Q565 119 571 235Q576 340 578 473T578 738T571 969Q568 1028 542 1055T458 1082Q395 1082 350 1054T283 969V232Q306 169 346 144T449 119Z" />
<glyph unicode="&#xff;" glyph-name="ydieresis" horiz-adv-x="752" d="M192 -411Q162 -411 122 -408T49 -399V-264Q75 -267 115 -269T189 -271Q271 -271 301 -245T342 -151L368 0H245L51 1200H235L312 627L365 135H413L468 627L534 1200H718L521 -139Q507 -230
474 -290T375 -381T192 -411ZM432 1310V1452H573V1310H432ZM189 1310V1452H330V1310H189Z" />
<glyph unicode="&#x2013;" glyph-name="endash" horiz-adv-x="923" d="M60 673V831H863V673H60Z" />
<glyph unicode="&#x2014;" glyph-name="emdash" horiz-adv-x="1526" d="M60 673V831H1466V673H60Z" />
<glyph unicode="&#x2018;" glyph-name="quoteleft" horiz-adv-x="478" d="M91 1167V1355L219 1600H334L232 1375H387V1167H91Z" />
<glyph unicode="&#x2019;" glyph-name="quoteright" horiz-adv-x="478" d="M144 1167L246 1393H91V1600H387V1412L259 1167H144Z" />
<glyph unicode="&#x201a;" glyph-name="quotesinglbase" horiz-adv-x="478" d="M126 -225L228 0H73V208H368V19L241 -225H126Z" />
<glyph unicode="&#x201c;" glyph-name="quotedblleft" horiz-adv-x="762" d="M419 1167V1355L539 1600H646L554 1375H692V1167H419ZM70 1167V1355L190 1600H298L204 1375H342V1167H70Z" />
<glyph unicode="&#x201d;" glyph-name="quotedblright" horiz-adv-x="762" d="M115 1167L208 1393H70V1600H342V1412L222 1167H115ZM464 1167L558 1393H419V1600H692V1412L573 1167H464Z" />
<glyph unicode="&#x201e;" glyph-name="quotedblbase" horiz-adv-x="900" d="M126 -225L228 0H73V208H368V19L241 -225H126ZM538 -225L640 0H485V208H780V19L653 -225H538Z" />
<glyph unicode="&#x2022;" glyph-name="bullet" horiz-adv-x="537" d="M91 654V966H445V654H91Z" />
<glyph unicode="&#x2039;" glyph-name="guilsinglleft" horiz-adv-x="462" d="M371 228L60 536V711L371 1020V845L148 624L371 402V228Z" />
<glyph unicode="&#x203a;" glyph-name="guilsinglright" horiz-adv-x="462" d="M91 228L402 536V711L91 1020V845L314 624L91 402V228Z" />
</font>
</defs>
</svg>
